# Blender 4.0.1
# www.blender.org
mtllib test.mtl
o Cube.001
v 3.600000 -0.003294 3.600000
v 3.600000 3.196706 3.600000
v 4.400001 -0.003294 3.600000
v 4.400001 3.196706 3.600000
v 3.600001 -0.003294 4.400000
v 3.600001 3.196706 4.400000
v 4.400001 -0.003294 4.400000
v 4.400001 3.196706 4.400000
vn -0.0000 -0.0000 -1.0000
vn 1.0000 -0.0000 -0.0000
vn -0.0000 -0.0000 1.0000
vn -1.0000 -0.0000 -0.0000
vn -0.0000 -1.0000 -0.0000
vn -0.0000 1.0000 -0.0000
vt 0.375000 0.000000
vt 0.625000 0.000000
vt 0.625000 0.250000
vt 0.375000 0.250000
vt 0.625000 0.500000
vt 0.375000 0.500000
vt 0.625000 0.750000
vt 0.375000 0.750000
vt 0.625000 1.000000
vt 0.375000 1.000000
vt 0.125000 0.500000
vt 0.125000 0.750000
vt 0.875000 0.500000
vt 0.875000 0.750000
s 0
f 1/1/1 2/2/1 4/3/1 3/4/1
f 3/4/2 4/3/2 8/5/2 7/6/2
f 7/6/3 8/5/3 6/7/3 5/8/3
f 5/8/4 6/7/4 2/9/4 1/10/4
f 3/11/5 7/6/5 5/8/5 1/12/5
f 8/5/6 4/13/6 2/14/6 6/7/6
o Cube.002
v -4.400000 -0.003294 3.600001
v -4.400000 3.196706 3.600001
v -3.600000 -0.003294 3.600000
v -3.600000 3.196706 3.600000
v -4.400000 -0.003294 4.400001
v -4.400000 3.196706 4.400001
v -3.600000 -0.003294 4.400001
v -3.600000 3.196706 4.400001
vn -0.0000 -0.0000 -1.0000
vn 1.0000 -0.0000 -0.0000
vn -0.0000 -0.0000 1.0000
vn -1.0000 -0.0000 -0.0000
vn -0.0000 -1.0000 -0.0000
vn -0.0000 1.0000 -0.0000
vt 0.375000 0.000000
vt 0.625000 0.000000
vt 0.625000 0.250000
vt 0.375000 0.250000
vt 0.625000 0.500000
vt 0.375000 0.500000
vt 0.625000 0.750000
vt 0.375000 0.750000
vt 0.625000 1.000000
vt 0.375000 1.000000
vt 0.125000 0.500000
vt 0.125000 0.750000
vt 0.875000 0.500000
vt 0.875000 0.750000
s 0
usemtl Test
f 9/15/7 10/16/7 12/17/7 11/18/7
f 11/18/8 12/17/8 16/19/8 15/20/8
f 15/20/9 16/19/9 14/21/9 13/22/9
f 13/22/10 14/21/10 10/23/10 9/24/10
f 11/25/11 15/20/11 13/22/11 9/26/11
f 16/19/12 12/27/12 10/28/12 14/21/12
o Cube.003
v 3.600000 -0.003294 -4.400001
v 3.600000 3.196706 -4.400001
v 4.400000 -0.003294 -4.400001
v 4.400000 3.196706 -4.400001
v 3.600000 -0.003294 -3.600000
v 3.600000 3.196706 -3.600000
v 4.400000 -0.003294 -3.600001
v 4.400000 3.196706 -3.600001
v 0.678414 -0.003294 -4.400000
v 0.678414 3.196706 -4.400000
v 0.678414 3.196706 -3.600000
v 0.678414 -0.003294 -3.600000
v 4.400000 3.196706 -1.460377
v 4.400000 -0.003294 -1.460377
v 3.600000 -0.003294 -1.460377
v 3.600000 3.196706 -1.460377
vn -0.0000 -0.0000 -1.0000
vn 1.0000 -0.0000 -0.0000
vn -1.0000 -0.0000 -0.0000
vn -0.0000 -0.0000 1.0000
vn -0.0000 -1.0000 -0.0000
vn -0.0000 1.0000 -0.0000
vt 0.375000 0.000000
vt 0.625000 0.000000
vt 0.625000 0.250000
vt 0.375000 0.250000
vt 0.625000 0.500000
vt 0.375000 0.500000
vt 0.625000 0.750000
vt 0.375000 0.750000
vt 0.125000 0.500000
vt 0.125000 0.750000
vt 0.875000 0.500000
vt 0.875000 0.750000
vt 0.625000 1.000000
vt 0.375000 1.000000
s 0
f 17/29/13 18/30/13 20/31/13 19/32/13
f 19/32/14 20/31/14 24/33/14 23/34/14
f 22/35/15 21/36/15 31/36/15 32/35/15
f 21/36/16 22/35/16 27/35/16 28/36/16
f 19/37/17 23/34/17 21/36/17 17/38/17
f 24/33/18 20/39/18 18/40/18 22/35/18
f 28/36/15 27/35/15 26/41/15 25/42/15
f 18/30/13 17/29/13 25/29/13 26/30/13
f 17/38/17 21/36/17 28/36/17 25/38/17
f 22/35/18 18/40/18 26/40/18 27/35/18
f 30/34/16 29/33/16 32/35/16 31/36/16
f 21/36/17 23/34/17 30/34/17 31/36/17
f 24/33/18 22/35/18 32/35/18 29/33/18
f 23/34/14 24/33/14 29/33/14 30/34/14
o Cube.004
v -4.400001 -0.003294 -4.400000
v -4.400001 3.196706 -4.400000
v -3.600001 -0.003294 -4.400000
v -3.600001 3.196706 -4.400000
v -4.400001 -0.003294 -3.600000
v -4.400001 3.196706 -3.600000
v -3.600000 -0.003294 -3.600000
v -3.600000 3.196706 -3.600000
v -0.554489 3.196706 -4.400000
v -0.554489 -0.003294 -4.400000
v -0.554489 -0.003294 -3.600000
v -0.554489 3.196706 -3.600000
v -3.600000 3.196706 0.180933
v -3.600000 -0.003294 0.180933
v -4.400000 -0.003294 0.180933
v -4.400000 3.196706 0.180933
vn -0.0000 -0.0000 -1.0000
vn -0.0000 1.0000 -0.0000
vn -0.0000 -1.0000 -0.0000
vn -1.0000 -0.0000 -0.0000
vn 1.0000 -0.0000 -0.0000
vn -0.0000 -0.0000 1.0000
vt 0.375000 0.000000
vt 0.625000 0.000000
vt 0.625000 0.250000
vt 0.375000 0.250000
vt 0.875000 0.500000
vt 0.625000 0.500000
vt 0.375000 0.750000
vt 0.375000 0.500000
vt 0.625000 0.750000
vt 0.625000 1.000000
vt 0.375000 1.000000
vt 0.125000 0.500000
vt 0.125000 0.750000
vt 0.875000 0.750000
s 0
f 33/43/19 34/44/19 36/45/19 35/46/19
f 36/47/20 40/48/20 44/48/20 41/47/20
f 37/49/21 39/50/21 46/50/21 47/49/21
f 37/49/22 38/51/22 34/52/22 33/53/22
f 35/54/21 39/50/21 37/49/21 33/55/21
f 40/48/20 36/47/20 34/56/20 38/51/20
f 42/46/23 41/45/23 44/48/23 43/50/23
f 35/46/19 36/45/19 41/45/19 42/46/19
f 40/48/24 39/50/24 43/50/24 44/48/24
f 39/50/21 35/54/21 42/54/21 43/50/21
f 46/50/24 45/48/24 48/51/24 47/49/24
f 40/48/20 38/51/20 48/51/20 45/48/20
f 39/50/23 40/48/23 45/48/23 46/50/23
f 38/51/22 37/49/22 47/49/22 48/51/22
o Cube
v -4.600000 2.894228 -4.599999
v -4.600000 3.294228 -4.599999
v 4.599999 2.894228 -4.600000
v 4.599999 3.294228 -4.600000
v -4.599999 2.894228 4.600000
v -4.599999 3.294228 4.600000
v 4.600000 2.894228 4.599999
v 4.600000 3.294228 4.599999
vn -0.0000 -0.0000 -1.0000
vn 1.0000 -0.0000 -0.0000
vn -0.0000 -0.0000 1.0000
vn -1.0000 -0.0000 -0.0000
vn -0.0000 -1.0000 -0.0000
vn -0.0000 1.0000 -0.0000
vt 0.375000 0.000000
vt 0.625000 0.000000
vt 0.625000 0.250000
vt 0.375000 0.250000
vt 0.625000 0.500000
vt 0.375000 0.500000
vt 0.625000 0.750000
vt 0.375000 0.750000
vt 0.625000 1.000000
vt 0.375000 1.000000
vt 0.125000 0.500000
vt 0.125000 0.750000
vt 0.875000 0.500000
vt 0.875000 0.750000
s 0
f 49/57/25 50/58/25 52/59/25 51/60/25
f 51/60/26 52/59/26 56/61/26 55/62/26
f 55/62/27 56/61/27 54/63/27 53/64/27
f 53/64/28 54/63/28 50/65/28 49/66/28
f 51/67/29 55/62/29 53/64/29 49/68/29
f 56/61/30 52/69/30 50/70/30 54/63/30
o Cube.005
v -0.719401 0.481604 -0.959202
v -1.200000 0.681604 -1.600000
v 0.719401 0.481604 -0.959202
v 1.200000 0.681604 -1.600000
v -0.719401 0.481604 0.959202
v -1.200000 0.681604 1.600000
v 0.719401 0.481604 0.959201
v 1.200000 0.681604 1.600000
v 1.200000 0.481604 -1.600000
v -1.200000 0.481604 -1.600000
v 1.200000 0.481604 1.600000
v -1.200000 0.481604 1.600000
v 0.719401 -0.013601 -0.959202
v -0.719401 -0.013601 -0.959202
v 0.719401 -0.013601 0.959201
v -0.719401 -0.013601 0.959202
vn -0.0000 -0.0000 -1.0000
vn 1.0000 -0.0000 -0.0000
vn -0.0000 -0.0000 1.0000
vn -1.0000 -0.0000 -0.0000
vn -0.0000 1.0000 -0.0000
vn -0.0000 -1.0000 -0.0000
vt 0.375000 0.000000
vt 0.625000 0.000000
vt 0.625000 0.250000
vt 0.375000 0.250000
vt 0.625000 0.500000
vt 0.375000 0.500000
vt 0.625000 0.750000
vt 0.375000 0.750000
vt 0.625000 1.000000
vt 0.375000 1.000000
vt 0.324938 0.550062
vt 0.324938 0.699938
vt 0.875000 0.500000
vt 0.875000 0.750000
vt 0.175062 0.550062
vt 0.175062 0.699938
vt 0.125000 0.750000
vt 0.125000 0.500000
s 0
f 66/71/31 58/72/31 60/73/31 65/74/31
f 65/74/32 60/73/32 64/75/32 67/76/32
f 67/76/33 64/75/33 62/77/33 68/78/33
f 68/78/34 62/77/34 58/79/34 66/80/34
f 63/81/33 61/82/33 72/82/33 71/81/33
f 64/75/35 60/83/35 58/84/35 62/77/35
f 59/85/36 57/86/36 66/87/36 65/88/36
f 63/81/36 59/85/36 65/88/36 67/76/36
f 61/82/36 63/81/36 67/76/36 68/78/36
f 57/86/36 61/82/36 68/78/36 66/87/36
f 69/85/36 71/81/36 72/82/36 70/86/36
f 57/86/31 59/85/31 69/85/31 70/86/31
f 61/82/34 57/86/34 70/86/34 72/82/34
f 59/85/32 63/81/32 71/81/32 69/85/32
