# Blender 4.0.1
# www.blender.org
mtllib test.mtl
o Cube.001
v 18.000000 0.000000 -18.000000
v 18.000000 16.000000 -18.000000
v 18.000000 0.000000 -22.000000
v 18.000000 16.000000 -22.000000
v 22.000000 0.000000 -18.000000
v 22.000000 16.000000 -18.000000
v 22.000000 0.000000 -22.000000
v 22.000000 16.000000 -22.000000
vn -1.0000 -0.0000 -0.0000
vn -0.0000 -0.0000 -1.0000
vn 1.0000 -0.0000 -0.0000
vn -0.0000 -0.0000 1.0000
vn -0.0000 -1.0000 -0.0000
vn -0.0000 1.0000 -0.0000
vt 0.625000 0.000000
vt 0.375000 0.250000
vt 0.375000 0.000000
vt 0.625000 0.250000
vt 0.375000 0.500000
vt 0.625000 0.500000
vt 0.375000 0.750000
vt 0.625000 0.750000
vt 0.375000 1.000000
vt 0.125000 0.750000
vt 0.125000 0.500000
vt 0.875000 0.500000
vt 0.625000 1.000000
vt 0.875000 0.750000
s 0
f 2/1/1 3/2/1 1/3/1
f 4/4/2 7/5/2 3/2/2
f 8/6/3 5/7/3 7/5/3
f 6/8/4 1/9/4 5/7/4
f 7/5/5 1/10/5 3/11/5
f 4/12/6 6/8/6 8/6/6
f 2/1/1 4/4/1 3/2/1
f 4/4/2 8/6/2 7/5/2
f 8/6/3 6/8/3 5/7/3
f 6/8/4 2/13/4 1/9/4
f 7/5/5 5/7/5 1/10/5
f 4/12/6 2/14/6 6/8/6
o Cube.002
v 18.000000 0.000000 22.000000
v 18.000000 16.000000 22.000000
v 18.000000 0.000000 18.000000
v 18.000000 16.000000 18.000000
v 22.000000 0.000000 22.000000
v 22.000000 16.000000 22.000000
v 22.000000 0.000000 18.000000
v 22.000000 16.000000 18.000000
vn -1.0000 -0.0000 -0.0000
vn -0.0000 -0.0000 -1.0000
vn 1.0000 -0.0000 -0.0000
vn -0.0000 -0.0000 1.0000
vn -0.0000 -1.0000 -0.0000
vn -0.0000 1.0000 -0.0000
vt 0.625000 0.000000
vt 0.375000 0.250000
vt 0.375000 0.000000
vt 0.625000 0.250000
vt 0.375000 0.500000
vt 0.625000 0.500000
vt 0.375000 0.750000
vt 0.625000 0.750000
vt 0.375000 1.000000
vt 0.125000 0.750000
vt 0.125000 0.500000
vt 0.875000 0.500000
vt 0.625000 1.000000
vt 0.875000 0.750000
s 0
usemtl Test
f 10/15/7 11/16/7 9/17/7
f 12/18/8 15/19/8 11/16/8
f 16/20/9 13/21/9 15/19/9
f 14/22/10 9/23/10 13/21/10
f 15/19/11 9/24/11 11/25/11
f 12/26/12 14/22/12 16/20/12
f 10/15/7 12/18/7 11/16/7
f 12/18/8 16/20/8 15/19/8
f 16/20/9 14/22/9 13/21/9
f 14/22/10 10/27/10 9/23/10
f 15/19/11 13/21/11 9/24/11
f 12/26/12 10/28/12 14/22/12
o Cube.003
v -22.000000 0.000000 -18.000000
v -22.000000 16.000000 -18.000000
v -22.000000 0.000000 -22.000000
v -22.000000 16.000000 -22.000000
v -18.000000 0.000000 -18.000000
v -18.000000 16.000000 -18.000000
v -18.000000 0.000000 -22.000000
v -18.000000 16.000000 -22.000000
v -22.000000 0.000000 -6.778108
v -22.000000 16.000000 -6.778108
v -18.000000 16.000000 -6.778108
v -18.000000 0.000000 -6.778108
v -7.301885 16.000000 -22.000000
v -7.301885 0.000000 -22.000000
v -7.301885 0.000000 -18.000000
v -7.301885 16.000000 -18.000000
vn -1.0000 -0.0000 -0.0000
vn -0.0000 -0.0000 -1.0000
vn -0.0000 -0.0000 1.0000
vn 1.0000 -0.0000 -0.0000
vn -0.0000 -1.0000 -0.0000
vn -0.0000 1.0000 -0.0000
vt 0.625000 0.000000
vt 0.375000 0.250000
vt 0.375000 0.000000
vt 0.625000 0.250000
vt 0.375000 0.500000
vt 0.375000 0.750000
vt 0.625000 0.750000
vt 0.125000 0.750000
vt 0.125000 0.500000
vt 0.875000 0.500000
vt 0.625000 0.500000
vt 0.375000 1.000000
vt 0.875000 0.750000
vt 0.625000 1.000000
s 0
f 18/29/13 19/30/13 17/31/13
f 20/32/14 23/33/14 19/30/14
f 21/34/15 32/35/15 22/35/15
f 22/35/16 28/34/16 21/34/16
f 23/33/17 17/36/17 19/37/17
f 20/38/18 22/35/18 24/39/18
f 27/35/15 25/40/15 28/34/15
f 17/31/13 26/29/13 18/29/13
f 21/34/17 25/36/17 17/36/17
f 18/41/18 27/35/18 22/35/18
f 29/39/16 31/34/16 30/33/16
f 23/33/17 31/34/17 21/34/17
f 22/35/18 29/39/18 24/39/18
f 24/39/14 30/33/14 23/33/14
f 18/29/13 20/32/13 19/30/13
f 20/32/14 24/39/14 23/33/14
f 21/34/15 31/34/15 32/35/15
f 22/35/16 27/35/16 28/34/16
f 23/33/17 21/34/17 17/36/17
f 20/38/18 18/41/18 22/35/18
f 27/35/15 26/42/15 25/40/15
f 17/31/13 25/31/13 26/29/13
f 21/34/17 28/34/17 25/36/17
f 18/41/18 26/41/18 27/35/18
f 29/39/16 32/35/16 31/34/16
f 23/33/17 30/33/17 31/34/17
f 22/35/18 32/35/18 29/39/18
f 24/39/14 29/39/14 30/33/14
o Cube.004
v -22.000000 0.000000 22.000000
v -22.000000 16.000000 22.000000
v -22.000000 0.000000 18.000000
v -22.000000 16.000000 18.000000
v -18.000000 0.000000 22.000000
v -18.000000 16.000000 22.000000
v -18.000000 0.000000 18.000000
v -18.000000 16.000000 18.000000
v -22.000000 16.000000 10.718760
v -22.000000 0.000000 10.718760
v -18.000000 0.000000 10.718760
v -18.000000 16.000000 10.718760
v -4.619054 16.000000 18.000000
v -4.619054 0.000000 18.000000
v -4.619054 0.000000 22.000000
v -4.619054 16.000000 22.000000
vn -1.0000 -0.0000 -0.0000
vn -0.0000 1.0000 -0.0000
vn -0.0000 -1.0000 -0.0000
vn -0.0000 -0.0000 1.0000
vn -0.0000 -0.0000 -1.0000
vn 1.0000 -0.0000 -0.0000
vt 0.625000 0.000000
vt 0.375000 0.250000
vt 0.375000 0.000000
vt 0.625000 0.500000
vt 0.875000 0.500000
vt 0.375000 0.500000
vt 0.375000 0.750000
vt 0.625000 0.750000
vt 0.375000 1.000000
vt 0.125000 0.750000
vt 0.125000 0.500000
vt 0.625000 0.250000
vt 0.625000 1.000000
vt 0.875000 0.750000
s 0
f 34/43/19 35/44/19 33/45/19
f 40/46/20 41/47/20 36/47/20
f 39/48/21 47/49/21 37/49/21
f 38/50/22 33/51/22 37/49/22
f 39/48/21 33/52/21 35/53/21
f 36/47/20 38/50/20 40/46/20
f 41/54/23 43/48/23 42/44/23
f 36/54/19 42/44/19 35/44/19
f 39/48/24 44/46/24 40/46/24
f 35/53/21 43/48/21 39/48/21
f 45/46/24 47/49/24 46/48/24
f 38/50/20 45/46/20 40/46/20
f 40/46/23 46/48/23 39/48/23
f 37/49/22 48/50/22 38/50/22
f 34/43/19 36/54/19 35/44/19
f 40/46/20 44/46/20 41/47/20
f 39/48/21 46/48/21 47/49/21
f 38/50/22 34/55/22 33/51/22
f 39/48/21 37/49/21 33/52/21
f 36/47/20 34/56/20 38/50/20
f 41/54/23 44/46/23 43/48/23
f 36/54/19 41/54/19 42/44/19
f 39/48/24 43/48/24 44/46/24
f 35/53/21 42/53/21 43/48/21
f 45/46/24 48/50/24 47/49/24
f 38/50/20 48/50/20 45/46/20
f 40/46/23 45/46/23 46/48/23
f 37/49/22 47/49/22 48/50/22
o Cube
v -23.000000 14.487605 23.000000
v -23.000000 16.487606 23.000000
v -23.000000 14.487605 -23.000000
v -23.000000 16.487606 -23.000000
v 23.000000 14.487605 23.000000
v 23.000000 16.487606 23.000000
v 23.000000 14.487605 -23.000000
v 23.000000 16.487606 -23.000000
vn -1.0000 -0.0000 -0.0000
vn -0.0000 -0.0000 -1.0000
vn 1.0000 -0.0000 -0.0000
vn -0.0000 -0.0000 1.0000
vn -0.0000 -1.0000 -0.0000
vn -0.0000 1.0000 -0.0000
vt 0.625000 0.000000
vt 0.375000 0.250000
vt 0.375000 0.000000
vt 0.625000 0.250000
vt 0.375000 0.500000
vt 0.625000 0.500000
vt 0.375000 0.750000
vt 0.625000 0.750000
vt 0.375000 1.000000
vt 0.125000 0.750000
vt 0.125000 0.500000
vt 0.875000 0.500000
vt 0.625000 1.000000
vt 0.875000 0.750000
s 0
f 50/57/25 51/58/25 49/59/25
f 52/60/26 55/61/26 51/58/26
f 56/62/27 53/63/27 55/61/27
f 54/64/28 49/65/28 53/63/28
f 55/61/29 49/66/29 51/67/29
f 52/68/30 54/64/30 56/62/30
f 50/57/25 52/60/25 51/58/25
f 52/60/26 56/62/26 55/61/26
f 56/62/27 54/64/27 53/63/27
f 54/64/28 50/69/28 49/65/28
f 55/61/29 53/63/29 49/66/29
f 52/68/30 50/70/30 54/64/30
o Cube.005
v -4.796009 2.424486 3.597006
v -8.000000 3.424486 6.000000
v -4.796009 2.424486 -3.597006
v -8.000000 3.424486 -6.000000
v 4.796009 2.424486 3.597006
v 8.000000 3.424486 6.000000
v 4.796009 2.424486 -3.597006
v 8.000000 3.424486 -6.000000
v -8.000000 2.424486 -6.000000
v -8.000000 2.424486 6.000000
v 8.000000 2.424486 -6.000000
v 8.000000 2.424486 6.000000
v -4.796009 -0.051535 -3.597006
v -4.796009 -0.051535 3.597006
v 4.796009 -0.051535 -3.597006
v 4.796009 -0.051535 3.597006
vn -1.0000 -0.0000 -0.0000
vn -0.0000 -0.0000 -1.0000
vn 1.0000 -0.0000 -0.0000
vn -0.0000 -0.0000 1.0000
vn -0.0000 1.0000 -0.0000
vn -0.0000 -1.0000 -0.0000
vt 0.625000 0.000000
vt 0.375000 0.250000
vt 0.375000 0.000000
vt 0.625000 0.250000
vt 0.375000 0.500000
vt 0.625000 0.500000
vt 0.375000 0.750000
vt 0.625000 0.750000
vt 0.375000 1.000000
vt 0.324938 0.699938
vt 0.324938 0.550062
vt 0.875000 0.500000
vt 0.175062 0.699938
vt 0.125000 0.500000
vt 0.175062 0.550062
vt 0.125000 0.750000
vt 0.625000 1.000000
vt 0.875000 0.750000
s 0
f 58/71/31 65/72/31 66/73/31
f 60/74/32 67/75/32 65/72/32
f 64/76/33 68/77/33 67/75/33
f 62/78/34 66/79/34 68/77/34
f 61/80/33 71/81/33 63/81/33
f 60/82/35 62/78/35 64/76/35
f 57/83/36 65/84/36 59/85/36
f 59/85/36 67/75/36 63/81/36
f 63/81/36 68/77/36 61/80/36
f 61/80/36 66/86/36 57/83/36
f 71/81/36 70/83/36 69/85/36
f 59/85/31 70/83/31 57/83/31
f 57/83/34 72/80/34 61/80/34
f 63/81/32 69/85/32 59/85/32
f 58/71/31 60/74/31 65/72/31
f 60/74/32 64/76/32 67/75/32
f 64/76/33 62/78/33 68/77/33
f 62/78/34 58/87/34 66/79/34
f 61/80/33 72/80/33 71/81/33
f 60/82/35 58/88/35 62/78/35
f 57/83/36 66/86/36 65/84/36
f 59/85/36 65/84/36 67/75/36
f 63/81/36 67/75/36 68/77/36
f 61/80/36 68/77/36 66/86/36
f 71/81/36 72/80/36 70/83/36
f 59/85/31 69/85/31 70/83/31
f 57/83/34 70/83/34 72/80/34
f 63/81/32 71/81/32 69/85/32
